<svg width="1440" height="268" viewBox="0 0 1440 268" fill="none" xmlns="http://www.w3.org/2000/svg">
<g clip-path="url(#clip0_33_5790)">
<path d="M1463 419C1463 530.024 1380.12 630.76 1245.61 703.797C1111.15 776.813 925.317 822.005 720 822.005C514.683 822.005 328.853 776.813 194.387 703.797C59.8834 630.76 -23.0049 530.024 -23.0049 419C-23.0049 307.976 59.8834 207.24 194.387 134.203C328.853 61.1872 514.683 15.9951 720 15.9951C925.317 15.9951 1111.15 61.1872 1245.61 134.203C1380.12 207.24 1463 307.976 1463 419Z" fill="#0BCA21" fill-opacity="0.1" stroke="url(#paint0_linear_33_5790)" stroke-width="1.99015"/>
<path d="M1342 419C1342 511.799 1272.66 596.034 1160.05 657.127C1047.48 718.2 891.904 756.005 720 756.005C548.096 756.005 392.516 718.2 279.947 657.127C167.339 596.034 97.9951 511.799 97.9951 419C97.9951 326.201 167.339 241.966 279.947 180.873C392.516 119.8 548.096 81.9951 720 81.9951C891.904 81.9951 1047.48 119.8 1160.05 180.873C1272.66 241.966 1342 326.201 1342 419Z" fill="#0BCA21" fill-opacity="0.1" stroke="url(#paint1_linear_33_5790)" stroke-width="1.99015"/>
<path d="M1206 419C1206 491.642 1151.88 557.627 1063.89 605.509C975.928 653.371 854.348 683.005 720 683.005C585.652 683.005 464.072 653.371 376.115 605.509C288.119 557.627 233.995 491.642 233.995 419C233.995 346.358 288.119 280.373 376.115 232.491C464.072 184.629 585.652 154.995 720 154.995C854.348 154.995 975.928 184.629 1063.89 232.491C1151.88 280.373 1206 346.358 1206 419Z" fill="#0BCA21" fill-opacity="0.06" stroke="url(#paint2_linear_33_5790)" stroke-width="1.99015"/>
<path d="M1078 419C1078 472.311 1038.21 520.796 973.376 556.011C908.582 591.206 819.002 613.005 720 613.005C620.998 613.005 531.418 591.206 466.624 556.011C401.791 520.796 361.995 472.311 361.995 419C361.995 365.689 401.791 317.204 466.624 281.989C531.418 246.794 620.998 224.995 720 224.995C819.002 224.995 908.582 246.794 973.376 281.989C1038.21 317.204 1078 365.689 1078 419Z" fill="#0BCA21" fill-opacity="0.09" stroke="url(#paint3_linear_33_5790)" stroke-width="1.99015"/>
<rect y="15" width="1481" height="253" fill="url(#paint4_linear_33_5790)"/>
</g>
<defs>
<linearGradient id="paint0_linear_33_5790" x1="720" y1="-57.5128" x2="720" y2="332.777" gradientUnits="userSpaceOnUse">
<stop stop-color="white" stop-opacity="0.5"/>
<stop offset="1" stop-color="white" stop-opacity="0"/>
</linearGradient>
<linearGradient id="paint1_linear_33_5790" x1="720" y1="20.3333" x2="720" y2="346.863" gradientUnits="userSpaceOnUse">
<stop stop-color="white" stop-opacity="0.5"/>
<stop offset="1" stop-color="white" stop-opacity="0"/>
</linearGradient>
<linearGradient id="paint2_linear_33_5790" x1="720" y1="106.436" x2="720" y2="362.443" gradientUnits="userSpaceOnUse">
<stop stop-color="white" stop-opacity="0.5"/>
<stop offset="1" stop-color="white" stop-opacity="0"/>
</linearGradient>
<linearGradient id="paint3_linear_33_5790" x1="720" y1="189" x2="720" y2="377.382" gradientUnits="userSpaceOnUse">
<stop stop-color="white" stop-opacity="0.5"/>
<stop offset="1" stop-color="white" stop-opacity="0"/>
</linearGradient>
<linearGradient id="paint4_linear_33_5790" x1="740.5" y1="268" x2="740.5" y2="121.067" gradientUnits="userSpaceOnUse">
<stop stop-color="#060606"/>
<stop offset="1" stop-color="#060606" stop-opacity="0"/>
</linearGradient>
<clipPath id="clip0_33_5790">
<rect width="1505" height="268" fill="white" transform="translate(-24)"/>
</clipPath>
</defs>
</svg>
