<svg width="31" height="32" viewBox="0 0 31 32" fill="none" xmlns="http://www.w3.org/2000/svg">
<g clip-path="url(#clip0_32_5417)">
<path fill-rule="evenodd" clip-rule="evenodd" d="M3.73027e-07 3.463C3.73027e-07 2.79462 0.265513 2.15362 0.738127 1.681C1.21074 1.20839 1.85175 0.942874 2.52012 0.942874H27.6418C27.9731 0.942333 28.3011 1.00713 28.6073 1.13355C28.9135 1.25997 29.1917 1.44554 29.426 1.67963C29.6603 1.91372 29.8462 2.19173 29.973 2.49774C30.0997 2.80376 30.1649 3.13177 30.1647 3.463V28.5847C30.1651 28.916 30.1001 29.2441 29.9735 29.5503C29.847 29.8564 29.6613 30.1346 29.4271 30.369C29.1929 30.6033 28.9148 30.7891 28.6087 30.9159C28.3026 31.0426 27.9745 31.1078 27.6432 31.1076H2.52012C2.18906 31.1076 1.86124 31.0423 1.5554 30.9156C1.24955 30.7889 0.971676 30.6031 0.737643 30.369C0.503609 30.1348 0.318007 29.8568 0.19144 29.5509C0.0648723 29.245 -0.000179748 28.9171 3.73027e-07 28.5861V3.463ZM11.9397 12.4439H16.0243V14.4951C16.6139 13.3159 18.1221 12.2546 20.3886 12.2546C24.7337 12.2546 25.7634 14.6034 25.7634 18.9128V26.8955H21.3662V19.8945C21.3662 17.4402 20.7766 16.0554 19.2794 16.0554C17.2021 16.0554 16.3383 17.5485 16.3383 19.8945V26.8955H11.9397V12.4439ZM4.39856 26.7076H8.79712V12.2546H4.39856V26.7076ZM9.42647 7.54072C9.43476 7.91733 9.36775 8.2918 9.22936 8.64216C9.09096 8.99252 8.88399 9.31171 8.62057 9.58099C8.35715 9.85028 8.04259 10.0642 7.69537 10.2103C7.34814 10.3564 6.97523 10.4316 6.59853 10.4316C6.22183 10.4316 5.84892 10.3564 5.50169 10.2103C5.15446 10.0642 4.83991 9.85028 4.57649 9.58099C4.31307 9.31171 4.10609 8.99252 3.9677 8.64216C3.82931 8.2918 3.76229 7.91733 3.77059 7.54072C3.78687 6.80148 4.09196 6.09801 4.62053 5.58095C5.1491 5.06389 5.85911 4.77436 6.59853 4.77436C7.33794 4.77436 8.04796 5.06389 8.57653 5.58095C9.1051 6.09801 9.41019 6.80148 9.42647 7.54072Z" fill="#E5E7EB"/>
</g>
<defs>
<clipPath id="clip0_32_5417">
<rect width="30.1647" height="30.1647" fill="white" transform="translate(0 0.942871)"/>
</clipPath>
</defs>
</svg>
